<?xml version="1.0" encoding="UTF-8"?>
<!DOCTYPE svg PUBLIC "-//W3C//DTD SVG 1.1//EN" "http://www.w3.org/Graphics/SVG/1.1/DTD/svg11.dtd">
<!-- Creator: CorelDRAW 2019 (64-Bit) -->
<svg xmlns="http://www.w3.org/2000/svg" xml:space="preserve" width="725px" height="150px" version="1.1" style="shape-rendering:geometricPrecision; text-rendering:geometricPrecision; image-rendering:optimizeQuality; fill-rule:evenodd; clip-rule:evenodd"
viewBox="0 0 725 150"
 xmlns:xlink="http://www.w3.org/1999/xlink">
 <defs>
  <style type="text/css">
   <![CDATA[
    .fil1 {fill:white}
    .fil0 {fill:white;fill-rule:nonzero}
   ]]>
  </style>
 </defs>
 <g id="Layer_x0020_1">
  <metadata id="CorelCorpID_0Corel-Layer"/>
  <path class="fil0" d="M39.81 118.78l-10.41 0 -11.83 -42.2 0 -44.08 0.88 0 21.36 86.28zm-4.16 -27.24l14.63 -59.04 1.01 0 0 44.08 -10.65 35.37 -4.99 -20.41zm-32.36 27.24l0 -86.33 11.87 0 0 86.33 -11.87 0zm50.43 0l0 -86.33 11.86 0 0 86.33 -11.86 0z"/>
  <polygon id="1" class="fil0" points="76.77,32.45 92.13,32.45 92.13,118.78 76.77,118.78 "/>
  <path id="2" class="fil0" d="M124.72 30.81c2.98,0.07 5.72,0.64 8.25,1.77 2.55,1.11 4.75,2.61 6.62,4.53 1.88,1.9 3.37,4.15 4.48,6.75 1.12,2.59 1.73,5.4 1.87,8.41l0 1.79 -15.55 2.41c0,-0.45 0.02,-0.91 0.05,-1.4 0.04,-0.48 0.04,-0.98 0.04,-1.49 -0.05,-1.11 -0.2,-2.24 -0.43,-3.39 -0.24,-1.18 -0.57,-2.25 -1,-3.26 -0.43,-0.99 -1.01,-1.87 -1.72,-2.61 -0.71,-0.75 -1.58,-1.26 -2.61,-1.56l0 -11.95zm-1.8 89.62c-3.67,-0.2 -6.86,-1.04 -9.54,-2.53 -2.68,-1.49 -4.93,-3.41 -6.73,-5.76 -1.8,-2.36 -3.19,-5.02 -4.13,-8 -0.96,-2.97 -1.56,-6.05 -1.77,-9.24l15.34 -3.11c0.07,1.82 0.22,3.62 0.41,5.46 0.22,1.82 0.57,3.5 1.08,5.02 0.5,1.54 1.17,2.86 2.03,3.96 0.86,1.1 1.95,1.83 3.31,2.18l0 12.02zm-5.75 -41.57l-3.49 -3.29c-1.62,-1.42 -3.19,-2.89 -4.73,-4.42 -1.54,-1.52 -2.91,-3.17 -4.12,-4.99 -1.21,-1.8 -2.18,-3.82 -2.91,-6.02 -0.73,-2.21 -1.07,-4.71 -1.07,-7.49 0,-3.22 0.51,-6.15 1.53,-8.74 1.04,-2.6 2.5,-4.83 4.38,-6.72 1.91,-1.87 4.16,-3.34 6.8,-4.43 2.63,-1.07 5.54,-1.72 8.73,-1.9l0 11.77c-1.06,0.08 -2,0.38 -2.81,0.89 -0.79,0.5 -1.47,1.13 -2,1.86 -0.53,0.74 -0.93,1.6 -1.19,2.58 -0.27,0.95 -0.38,1.98 -0.38,3.04 0,1.45 0.18,2.81 0.54,4.07 0.38,1.27 0.9,2.44 1.56,3.53 0.66,1.11 1.44,2.15 2.33,3.13 0.88,0.99 1.85,1.93 2.88,2.84 0.44,0.42 1.05,1 1.83,1.72 0.78,0.73 1.59,1.47 2.43,2.25l-10.31 10.32zm12 -8.63l1.8 1.6c2.1,1.94 4.07,3.92 5.94,5.94 1.85,2.02 3.47,4.15 4.84,6.41 1.38,2.27 2.47,4.7 3.26,7.33 0.81,2.61 1.22,5.49 1.22,8.61 0,3.05 -0.56,5.79 -1.65,8.24 -1.09,2.46 -2.6,4.56 -4.48,6.31 -1.89,1.77 -4.1,3.15 -6.63,4.16 -2.55,0.99 -5.24,1.55 -8.12,1.65l0 -11.82c1.09,-0.07 2.02,-0.32 2.78,-0.73 0.76,-0.43 1.39,-0.99 1.87,-1.7 0.48,-0.72 0.82,-1.53 1.04,-2.45 0.21,-0.91 0.31,-1.92 0.31,-3.03 0,-1.8 -0.3,-3.55 -0.89,-5.26 -0.6,-1.68 -1.39,-3.3 -2.38,-4.86 -0.98,-1.55 -2.1,-3.02 -3.36,-4.43 -1.26,-1.4 -2.54,-2.73 -3.88,-3.95l-1.94 -1.79 10.27 -10.23z"/>
  <path id="3" class="fil0" d="M176.51 46.4l0 72.38 -15.36 0 0 -72.38 15.36 0zm-28.92 -13.95l42.33 0 0 11.54 -42.33 0 0 -11.54z"/>
  <path id="4" class="fil0" d="M195.79 118.78l0 -86.33 15.31 0 0 86.33 -15.31 0zm17.73 -10.7l16.99 0 0 10.7 -16.99 0 0 -10.7zm0 -75.63l16.99 0 0 10.71 -16.99 0 0 -10.71zm0 36.19l11.39 0 0 10.9 -11.39 0 0 -10.9z"/>
  <path id="5" class="fil0" d="M255.71 68.82l4.8 0c1.65,0 2.97,-0.44 3.97,-1.37 1,-0.93 1.78,-2.05 2.33,-3.37 0.54,-1.33 0.91,-2.71 1.09,-4.17 0.18,-1.44 0.26,-2.71 0.26,-3.77 0,-1.11 -0.08,-2.36 -0.25,-3.79 -0.14,-1.42 -0.47,-2.76 -0.99,-4.03 -0.49,-1.27 -1.2,-2.35 -2.13,-3.23 -0.91,-0.87 -2.12,-1.3 -3.61,-1.3l-5.47 0 0 -11.34 2.13 0c4.07,0 7.69,0.44 10.88,1.34 3.18,0.89 5.86,2.24 8.04,4.08 2.18,1.85 3.84,4.18 4.96,7.03 1.14,2.84 1.71,6.23 1.71,10.17 0,1.98 -0.09,3.98 -0.25,6.01 -0.17,2.04 -0.58,3.99 -1.28,5.89 -0.69,1.89 -1.77,3.64 -3.22,5.28 -1.46,1.63 -3.49,3.02 -6.1,4.18l12.25 42.35 -15.64 0 -10.04 -40.27 -3.44 0 0 -9.69zm-17.72 49.96l0 -86.33 15.31 0 0 86.33 -15.31 0z"/>
  <path class="fil0" d="M461.64 30.81c2.98,0.07 5.72,0.64 8.25,1.77 2.55,1.11 4.75,2.61 6.62,4.53 1.88,1.9 3.37,4.15 4.48,6.75 1.12,2.59 1.73,5.4 1.87,8.41l0 1.79 -15.55 2.41c0,-0.45 0.02,-0.91 0.05,-1.4 0.04,-0.48 0.04,-0.98 0.04,-1.49 -0.05,-1.11 -0.2,-2.24 -0.43,-3.39 -0.24,-1.18 -0.57,-2.25 -1,-3.26 -0.43,-0.99 -1,-1.87 -1.72,-2.61 -0.71,-0.75 -1.58,-1.26 -2.61,-1.56l0 -11.95zm-1.8 89.62c-3.67,-0.2 -6.86,-1.04 -9.54,-2.53 -2.68,-1.49 -4.93,-3.41 -6.73,-5.76 -1.8,-2.36 -3.19,-5.02 -4.13,-8 -0.96,-2.97 -1.56,-6.05 -1.77,-9.24l15.34 -3.11c0.07,1.82 0.22,3.62 0.42,5.46 0.21,1.82 0.56,3.5 1.07,5.02 0.5,1.54 1.17,2.86 2.03,3.96 0.86,1.1 1.95,1.83 3.31,2.18l0 12.02zm-5.75 -41.57l-3.49 -3.29c-1.62,-1.42 -3.19,-2.89 -4.73,-4.42 -1.54,-1.52 -2.91,-3.17 -4.12,-4.99 -1.21,-1.8 -2.18,-3.82 -2.91,-6.02 -0.73,-2.21 -1.07,-4.71 -1.07,-7.49 0,-3.22 0.51,-6.15 1.53,-8.74 1.05,-2.6 2.5,-4.83 4.39,-6.72 1.9,-1.87 4.15,-3.34 6.79,-4.43 2.63,-1.07 5.54,-1.72 8.73,-1.9l0 11.77c-1.06,0.08 -2,0.38 -2.81,0.89 -0.79,0.5 -1.47,1.13 -2,1.86 -0.53,0.74 -0.93,1.6 -1.19,2.58 -0.26,0.95 -0.38,1.98 -0.38,3.04 0,1.45 0.18,2.81 0.55,4.07 0.38,1.27 0.89,2.44 1.55,3.53 0.66,1.11 1.44,2.15 2.33,3.13 0.88,0.99 1.85,1.93 2.88,2.84 0.44,0.42 1.06,1 1.83,1.72 0.78,0.73 1.59,1.47 2.43,2.25l-10.31 10.32zm12 -8.63l1.8 1.6c2.1,1.94 4.07,3.92 5.94,5.94 1.85,2.02 3.47,4.15 4.84,6.41 1.38,2.27 2.47,4.7 3.26,7.33 0.81,2.61 1.22,5.49 1.22,8.61 0,3.05 -0.56,5.79 -1.65,8.24 -1.09,2.46 -2.6,4.56 -4.48,6.31 -1.89,1.77 -4.1,3.15 -6.63,4.16 -2.55,0.99 -5.24,1.55 -8.12,1.65l0 -11.82c1.09,-0.07 2.02,-0.32 2.78,-0.73 0.76,-0.43 1.39,-0.99 1.87,-1.7 0.48,-0.72 0.82,-1.53 1.04,-2.45 0.21,-0.91 0.31,-1.92 0.31,-3.03 0,-1.8 -0.29,-3.55 -0.89,-5.26 -0.6,-1.68 -1.39,-3.3 -2.38,-4.86 -0.98,-1.55 -2.1,-3.02 -3.36,-4.43 -1.25,-1.4 -2.54,-2.73 -3.88,-3.95l-1.94 -1.79 10.27 -10.23z"/>
  <path id="1" class="fil0" d="M540.63 32.45l0 86.33 -15.46 0 0 -39.24 -13.13 0 0 -9.79 13.13 0 0 -37.3 15.46 0zm-31 86.33l-15.31 0 0 -86.33 15.36 0 -0.05 86.33z"/>
  <polygon id="2" class="fil0" points="555.74,32.45 571.11,32.45 571.11,118.78 555.74,118.78 "/>
  <path id="3" class="fil0" d="M588.28 118.78l0 -86.33 15.32 0 0 86.33 -15.32 0zm17.73 -10.7l17 0 0 10.7 -17 0 0 -10.7zm0 -75.63l17 0 0 10.71 -17 0 0 -10.71zm0 36.19l11.39 0 0 10.9 -11.39 0 0 -10.9z"/>
  <path id="4" class="fil0" d="M633.46 118.78l0 -86.33 15.31 0 0 86.33 -15.31 0zm17.72 -10.7l16.29 0 0 10.7 -16.29 0 0 -10.7z"/>
  <path id="5" class="fil0" d="M691.73 107.88l0.44 0c2.35,0 4.3,-0.15 5.86,-0.46 1.55,-0.32 2.78,-0.85 3.68,-1.62 0.9,-0.78 1.54,-1.84 1.91,-3.16 0.38,-1.33 0.56,-3 0.56,-5.03l0 -44.81c0,-1.72 -0.23,-3.17 -0.68,-4.37 -0.45,-1.19 -1.16,-2.16 -2.13,-2.91 -0.96,-0.74 -2.2,-1.27 -3.69,-1.61 -1.47,-0.34 -3.24,-0.52 -5.27,-0.52l-0.68 0 0 -10.94 0.58 0c5.42,0 9.9,0.56 13.42,1.7 3.52,1.12 6.3,2.83 8.35,5.11 2.05,2.28 3.48,5.12 4.27,8.56 0.79,3.44 1.19,7.48 1.19,12.09l0 29.8c0,3.14 -0.15,6.02 -0.41,8.68 -0.28,2.64 -0.78,5.04 -1.52,7.21 -0.75,2.16 -1.77,4.06 -3.06,5.68 -1.29,1.64 -2.95,3.01 -4.96,4.12 -2.02,1.13 -4.47,1.97 -7.33,2.53 -2.86,0.56 -6.22,0.85 -10.09,0.85l-0.44 0 0 -10.9zm-17.73 10.9l0 -86.33 15.31 0 0 86.33 -15.31 0z"/>
  <g>
   <path class="fil1" d="M416.33 19.11c2.61,0.79 4.37,3.21 4.37,5.92l0 61.86c0,9.55 -4.24,18.28 -9.99,25.7 -5.65,7.29 -12.93,13.64 -20.35,19.07 -8.63,6.31 -19.11,12.67 -28.9,17.1 -0.8,0.36 -1.65,0.55 -2.52,0.55 -0.87,0 -1.72,-0.19 -2.52,-0.55 -9.78,-4.42 -20.29,-10.8 -28.9,-17.1 -7.42,-5.43 -14.7,-11.78 -20.35,-19.07 -5.75,-7.42 -10,-16.15 -10,-25.7l0 -61.86c0,-2.71 1.77,-5.13 4.37,-5.92l55.63 -16.87c1.15,-0.35 2.38,-0.35 3.54,0l55.62 16.87zm-117.17 5.92l3.76 -1.28 -3.76 1.28zm3.76 -1.28c38.04,-12.99 55.49,-18.2 55.49,-18.2l0.57 0.17 -56.06 18.03zm2.09 2.56c14.5,-12.04 35.32,-18.72 56.65,-17.87 19.54,0.79 39.56,8.38 54.49,13.98 -0.34,48.98 -0.91,72.06 -0.91,72.06 -20.87,27.48 -39.07,44.97 -54.6,52.48 -7.31,-0.68 -14.63,-5.15 -21.96,-13.42 -54.75,-36.01 -35.61,-49.08 -33.67,-107.23z"/>
  </g>
  <path class="fil1" d="M415.75 21.01l-55.62 -16.87c-0.78,-0.23 -1.61,-0.23 -2.39,0l-55.62 16.87c-1.76,0.53 -2.96,2.17 -2.96,4.02l0 61.86c0,8.04 3.22,16.28 9.57,24.48 4.86,6.26 11.57,12.55 19.96,18.68 14.09,10.32 27.97,16.64 28.55,16.91 0.54,0.24 1.12,0.36 1.7,0.36 0.58,0 1.16,-0.12 1.7,-0.36 0.58,-0.27 14.46,-6.59 28.55,-16.91 8.39,-6.13 15.1,-12.42 19.95,-18.68 6.36,-8.2 9.58,-16.43 9.58,-24.48l-0.01 -61.86c0,-1.85 -1.2,-3.49 -2.96,-4.02zm-2.88 5.3c-10.11,-3.32 -45.5,-16.47 -53.72,-16.62 -2.45,-0.04 -47.84,14.71 -54.14,16.62l0 60.58c0,7.72 3.72,14.89 8.33,20.83 5.22,6.74 11.94,12.54 18.78,17.55 4.25,3.11 8.67,5.99 13.2,8.68 0.88,2.38 1.82,4.86 3.05,7.63l0.89 -5.36c0.78,0.44 0.77,0.43 1.55,0.86 2.67,1.46 5.37,2.89 8.13,4.16 2.76,-1.27 5.45,-2.7 8.12,-4.16 1.21,-0.67 2.42,-1.35 3.62,-2.04l-0.01 5.25c0.88,-2.09 2.53,-4.8 3.43,-7.27 4.3,-2.57 7.62,-4.8 11.66,-7.75 6.83,-5.01 13.56,-10.81 18.78,-17.55 4.61,-5.94 8.33,-13.11 8.33,-20.83l0 -60.58z"/>
  <g>
   <path class="fil1" d="M344.87 59.83c1.31,0.76 0.46,0.27 1.74,1.02l-1.74 -1.02zm8.68 13.14c-5.55,5.24 -7.29,4.41 -7.18,4.43 4,0.95 2.5,4.74 3,9 0,7.13 -0.62,29.47 0.3,31.31 2.29,0.39 8.63,0.64 11.09,0.17 1.92,-0.37 2.25,-0.97 2.42,-2.96 0.17,-1.95 0.53,-3.49 0.42,-5.51 -1.4,-0.87 -9.42,-1.5 -10.66,-3.37 3.01,-0.39 9.82,0.88 10.57,-1.8 -1.65,-0.88 -5.14,-1.53 -7.34,-1.56 -1.25,-0.02 -1.94,0.1 -2.77,-0.38 3.79,-2.08 7.29,-0.3 10.08,-1.3 -0.17,-1.69 -2.31,-1.32 -3.6,-1.88 -0.84,-0.88 -0.9,-1.63 -1.9,-2.44 -0.95,-0.78 -1.92,-0.84 -1.92,-2.24l0.32 -0.1c1.4,1.34 2.83,2.53 3.94,3.17 0.24,-7.33 -0.55,-50.26 0.39,-53.11l10.77 -0.21c-5.63,-3.66 -20.6,-1.87 -27.89,-2.18 6.55,-1.67 9.18,-2.03 16.59,-2.46 0.22,-12.18 0.22,-12.75 0.17,-23.57 -19.04,2.67 -34.06,10.95 -33.38,32 2.81,2.23 13.91,9 17.91,11.85 -5.18,-2 -18.94,-8.76 -24.06,-11.2 1.26,5.12 3.4,46.32 4.58,48.05 11.36,16.68 18.06,23.78 22.97,44.9l0.02 -61.79c-1.64,-1.47 -3.7,-2.35 -5.97,-3.59l-4.76 -2.61c-3.72,-2.12 -1.03,-4.87 -2.18,-7.49 -0.52,-1.19 -3.34,-2.23 -4.65,-4.39 3.59,1.12 8.58,4.13 12.08,5.9 3.22,1.63 7.62,3.26 10.64,5.36z"/>
   <path class="fil1" d="M370.91 139.29c1.36,-3.23 3.16,-42.11 3.85,-47.21 1.84,-13.61 1.41,-7.74 7.53,-14.15 1.57,-1.64 2.58,-2.11 3.73,-3.64l-15.03 5.18 -0.08 59.82z"/>
   <path class="fil1" d="M388.85 55.22c3.92,-4.06 5.71,-10.41 3.61,-17.26 -1.59,-5.21 -6.56,-11.83 -9.7,-13.69 6.25,13.5 8.4,14.88 6.09,30.95z"/>
  </g>
 </g>
</svg>
