<?xml version="1.0" encoding="UTF-8"?>
<!DOCTYPE svg PUBLIC "-//W3C//DTD SVG 1.1//EN" "http://www.w3.org/Graphics/SVG/1.1/DTD/svg11.dtd">
<!-- Creator: CorelDRAW 2019 (64-Bit) -->
<svg xmlns="http://www.w3.org/2000/svg" xml:space="preserve" width="150px" height="200px" version="1.1" style="shape-rendering:geometricPrecision; text-rendering:geometricPrecision; image-rendering:optimizeQuality; fill-rule:evenodd; clip-rule:evenodd"
viewBox="0 0 150 200"
 xmlns:xlink="http://www.w3.org/1999/xlink">
 <defs>
  <style type="text/css">
   <![CDATA[
    .str0 {stroke:#18243D;stroke-width:0.9;stroke-miterlimit:10}
    .fil30 {fill:#BFD131}
    .fil28 {fill:#333333}
    .fil29 {fill:#4D4D4D}
    .fil12 {fill:#BFD131;fill-rule:nonzero}
    .fil13 {fill:#006633;fill-rule:nonzero}
    .fil18 {fill:#006633;fill-rule:nonzero}
    .fil0 {fill:#18243D;fill-rule:nonzero}
    .fil15 {fill:#1F3C91;fill-rule:nonzero}
    .fil14 {fill:#26489F;fill-rule:nonzero}
    .fil8 {fill:#271C16;fill-rule:nonzero}
    .fil9 {fill:#3D332D;fill-rule:nonzero}
    .fil26 {fill:#3D4B8F;fill-rule:nonzero}
    .fil19 {fill:#3E3835;fill-rule:nonzero}
    .fil3 {fill:#3F3A8E;fill-rule:nonzero}
    .fil21 {fill:#403631;fill-rule:nonzero}
    .fil11 {fill:#483331;fill-rule:nonzero}
    .fil23 {fill:#4E4845;fill-rule:nonzero}
    .fil24 {fill:#524945;fill-rule:nonzero}
    .fil25 {fill:#5A5450;fill-rule:nonzero}
    .fil20 {fill:#A5A5A4;fill-rule:nonzero}
    .fil22 {fill:#CAC7C6;fill-rule:nonzero}
    .fil10 {fill:#D29149;fill-rule:nonzero}
    .fil16 {fill:#D4CCD4;fill-rule:nonzero}
    .fil6 {fill:#D5954E;fill-rule:nonzero}
    .fil5 {fill:#D9A164;fill-rule:nonzero}
    .fil17 {fill:#E59E58;fill-rule:nonzero}
    .fil1 {fill:#E83464;fill-rule:nonzero}
    .fil4 {fill:#E9AD69;fill-rule:nonzero}
    .fil7 {fill:#EBBF85;fill-rule:nonzero}
    .fil27 {fill:#F5A53C;fill-rule:nonzero}
    .fil2 {fill:white;fill-rule:nonzero}
   ]]>
  </style>
 </defs>
 <g id="Layer_x0020_1">
  <metadata id="CorelCorpID_0Corel-Layer"/>
  <path class="fil0" d="M106.12 55c0,0 -5.97,-1.95 -7.84,-2.39 -3.74,-0.87 -16.28,0.47 -16.28,0.47l-3.84 0.92 -5.79 15.48 4.68 6.42c0,0 7.49,-2.23 9.74,-2.91 13.4,3.15 20.81,-5.05 29.89,-8.49 0.67,-2.24 0.96,-3.12 1.13,-8.29 -0.22,-2 -2.1,-10.4 -2.37,-12.54 -3.08,1.7 -4.56,1.49 -7.82,1.08l-2.04 4.95 0.54 5.3z"/>
  <path class="fil1" d="M104.3 33.81l0.58 1.65 2.59 1.8 1.05 1.54 0.22 2.24 -2.26 6.58c1.52,1.7 7.36,5.34 10.62,4.22 -0.82,-4.92 -2.41,-12.34 -2.81,-14.53 -0.12,-0.66 0.09,-3.89 0.09,-3.89l0.32 -2.22 -0.64 -1.21c-2.17,0.41 -4.01,1.29 -4.69,1.53 -1.93,0.66 -3.28,1.43 -5.07,2.29z"/>
  <polygon class="fil2" points="71.52,159.53 71.07,159.53 "/>
  <path class="fil3" d="M25.16 55.36c2.26,-0.98 7.86,-3.86 7.86,-3.86l10.52 -3.73 6.67 -1.25c0,0 5.8,0.76 8.44,1.06 3.87,2 10.47,1.9 19.51,6.42l3.71 5.34c4.04,6.81 -4.82,16.56 -4.82,16.56l-5.36 8.61 -6.56 12.21c0,0 2.9,12.18 4.69,20.63 -3.62,1.81 -33.8,2.29 -33.8,2.29l1.08 -0.53 -1.51 -1.28 -1.51 -6.94 3.02 -17.49 -7.13 -15.56 -1.47 -2.71c-0.69,-8.04 -4.32,-11.65 -3.34,-19.77z"/>
  <path class="fil3" d="M8.17 71.3c2.82,-3.39 4.97,-5.2 5.95,-6.33 0.15,-0.91 0.77,-2.19 0.92,-2.94 1.75,-2.7 5,-4.9 6.96,-6.56 0.83,-0.18 1.77,0 4.18,-0.45 3.39,-1.51 10.98,-5.18 12.81,-5.73 -0.98,8.48 -5.05,17.18 -8.21,24.42l-1.51 0.75 -0.9 7.24 -7.33 6.43 2.43 7.36c-0.98,2.41 2.64,6.09 1.53,8.47l-9.6 -3.57c0,0 -6.33,-3.16 -11.61,-7.84 -0.22,-2.98 1.78,-14.47 4.38,-21.25z"/>
  <path class="fil3" d="M46.61 115.77l-1.04 -6.16 21.09 -3.64c0,0 5.65,18.24 7.68,27.51 -0.11,4.07 -0.26,8.4 -1.05,14.7 0.72,4.37 4.67,8.47 6.39,15.01 -0.73,1.79 -0.07,10.68 -1.58,11.16 -2.97,0.95 -8.38,-4.5 -11.5,-6.07 -1.13,-3.24 -1.27,-7.32 -1.28,-7.39 -0.46,-2.56 -0.44,-6.23 -1.45,-9.62 -1.43,-3.84 -6.18,-11.76 -8.29,-15.98 -2.04,-4.07 -6.47,-16.83 -6.47,-16.83l-2.5 -2.69z"/>
  <path class="fil3" d="M16.99 158.97c1.06,-2.92 5.5,-11.77 5.5,-11.77 0,0 1.03,-5.94 0.77,-12.16 1.13,-3.62 2.56,-8.34 3.84,-11.31l7.73 -19.25 13.67 4.63 3.68 9.52c0,0 -4.97,9.2 -11.6,20.13 -2.79,4.58 -3.95,6.48 -7.09,11.45 -1.54,2.45 -3.16,6.18 -3.69,10.48 -0.59,4.03 -2.19,8.59 -2.19,8.59 -3.84,0.23 -7.92,-0.65 -12.61,-1.38 0.45,-3.17 1.21,-6.76 1.99,-8.93z"/>
  <polygon class="fil4" points="42.09,33.65 41.48,47.93 39.07,49.44 52.45,55.64 65.09,50.02 61.12,48.15 58.51,37.56 "/>
  <path class="fil5" d="M60.72 46.55l-0.28 -1.15c0.1,-0.02 0.2,-0.04 0.28,-0.05l0 1.2zm-18.95 -5.48l-0.19 -0.21 0.45 -7.91 1.09 0.59c0.05,0.13 0.09,0.26 0.13,0.39l-1.16 -0.28 -0.32 7.42z"/>
  <path class="fil6" d="M48.8 48.53l-7.03 -7.46 0.32 -7.42 1.16 0.28c0.62,1.85 0.89,2.78 1.53,4.69 1.5,2.46 1.29,4.6 2.01,5.93 0.53,0.09 3.73,1.45 5.16,1.61 2.79,-0.05 6.52,-0.41 8.49,-0.76l0.28 1.15 0 0.27 -1.35 0.75 -10.57 0.96z"/>
  <path class="fil7" d="M41.93 27.06c0.01,0.3 0.09,1.01 -0.45,1.18 0.14,0.82 0.54,2.13 0.8,2.88 1.44,4.07 1.6,4.82 2.5,7.5 1.5,2.46 1.29,4.6 2.01,5.93 0.53,0.09 3.73,1.45 5.16,1.61 3.25,-0.05 7.8,-0.54 9.32,-0.93 0.19,-0.1 1.11,-0.75 2.8,-1.77 0.4,-1.31 0.34,-3.28 0.68,-5.43 -0.88,-1.21 -1.47,-2.03 -2.38,-3.22 -0.52,-0.88 -0.84,-1.81 -1.2,-2.51 0.03,-0.73 0.11,-1.45 0.08,-2.56 -0.44,-1.03 -1.53,-3.19 -2.08,-4.45l-1.14 -5c0,0 -0.23,-1.53 -0.11,-1.74 -6.34,-1.26 -14.69,0.38 -15.99,8.51z"/>
  <polygon class="fil5" points="58.79,26.76 59.29,27.77 59,28.75 57.77,29.48 56.64,29.84 55.94,28.35 55.89,26.45 "/>
  <path class="fil8" d="M54.01 8.59c-0.04,1.1 0.03,3.17 -2.66,4.01 -4.35,1.37 -6.69,3.01 -8.93,4.13 -1.39,1.01 -3.14,2.63 -3.72,3.27 -0.22,2.86 1.18,4.23 1.18,4.23 0.1,1.39 1.21,3.19 1.89,5.42 0.54,-0.17 1.69,-0.18 1.68,-0.48 0.09,-2.32 -0.28,-4.01 0.66,-5.85 1.03,-0.33 2.24,-0.82 4.22,-0.9 2.75,0.38 6.06,1.68 10.12,-1.44 2.71,-3.34 4.53,-10.49 -4.44,-12.39z"/>
  <path class="fil7" d="M39.87 29.08c0.26,-1.38 1.35,-1.11 1.78,-0.95 0.6,0.23 1.04,0.57 1.33,1.39 0.17,0.5 0.45,1.24 0.3,1.74l-0.13 3.3 -1.21 -0.27c0,0 -2.2,-4.51 -2.07,-5.21z"/>
  <path class="fil0" d="M71.25 62.91c-3.93,-1.4 -6.64,-2.27 -7.48,-2.53l8.77 -7.96 1.71 0.76 2.6 0.68 -5.6 9.05zm-35.51 -1.04c0.48,-1.3 0.94,-2.62 1.35,-3.95l2.65 2.72c-1.21,0.37 -2.62,0.8 -4,1.23zm-8.17 -7.48l-0.03 -0.05 4.07 -2.04 0.14 0.15c-1.48,0.69 -2.95,1.38 -4.18,1.94z"/>
  <path class="fil0" d="M33.37 62.6l-5.8 -8.21c1.23,-0.56 2.7,-1.25 4.18,-1.94l5.34 5.47c-0.41,1.33 -0.87,2.65 -1.35,3.95 -0.81,0.25 -1.62,0.5 -2.37,0.73z"/>
  <polygon class="fil9" points="59.14,26.16 56.62,24.98 55.78,26.39 59.08,26.85 "/>
  <path class="fil2" d="M48.36 34.12l5.44 1.11 4.51 -0.72 1.8 -1.85c0,0 0.31,4.41 -0.46,5.57 -0.94,1.4 -4.35,2.31 -6.51,1.02 -1.46,-0.87 -4.78,-5.13 -4.78,-5.13z"/>
  <polygon class="fil10" points="53.53,32.3 57.35,31.85 56.34,33.23 55.35,33.63 "/>
  <polygon class="fil5" points="51.06,26.56 52.94,26.63 52.95,28.75 52.13,30.77 48.59,30.18 47.56,29.29 47.48,27.76 "/>
  <polygon class="fil11" points="50.41,27.96 52.25,27.83 52.58,28.38 48.55,29.29 "/>
  <polygon class="fil9" points="47.73,26.95 52.17,25.08 52.87,26.65 47.78,27.96 "/>
  <polygon class="fil11" points="56.23,27.7 57.41,27.47 58.84,28.16 56.05,28.19 "/>
  <path class="fil5" d="M43.08 31.05c-0.28,-0.64 -2.12,-2.04 -2.12,-2.04l0.02 1.28 1.09 2.79 0.5 -0.67 1.02 0.9c0,0 -1.13,-1.82 -0.51,-2.26z"/>
  <polygon class="fil5" points="55.92,41.79 58.86,41.56 58.18,42.47 57.16,42.58 "/>
  <path class="fil12" d="M67.92 50.92l-15.34 7.36 -15.09 -8.46 -1.7 0.79 16.79 13.1c0,0 17.3,-11.62 17.37,-12l-2.03 -0.79z"/>
  <path class="fil12" d="M39.36 87.07l13.06 7.32 11.81 -6.34c0,0 6.87,-18.83 9.89,-24.1 -6.45,-2.38 -10.63,-3.66 -10.63,-3.66l-10.68 6.13 -9.76 -6.78c0,0 -8.67,2.64 -12.17,3.73 2.41,6.48 8.48,23.7 8.48,23.7z"/>
  <path class="fil0" d="M69.38 81.72c-0.01,0 -0.03,0 -0.05,0l-2.47 -0.68c0.39,-1.04 0.82,-2.14 1.26,-3.27l2.12 0.18 3.91 -5.28 1.17 -3.65 -0.11 4.1 -3.47 7.09c-0.42,0.89 -1.37,1.51 -2.36,1.51z"/>
  <path class="fil13" d="M66.86 81.04l-4.26 -1.17 -8.42 -3.28 13.94 1.18c-0.44,1.13 -0.87,2.23 -1.26,3.27z"/>
  <path class="fil2" d="M30.06 78.04c-0.07,-0.03 -0.13,-0.06 -0.2,-0.09l-0.58 -1.38 0.69 1.27 0.09 0.2z"/>
  <path class="fil0" d="M34.73 79.42c-0.98,0 -3.12,-0.73 -4.67,-1.38l-0.09 -0.2 -0.69 -1.27 -0.21 -0.51 0.2 -1.6 1.48 -0.73 1.14 0.83 3.17 0.39c0.51,1.42 1,2.82 1.47,4.14l-1.75 0.33c-0.02,0 -0.03,0 -0.05,0z"/>
  <polygon class="fil0" points="29.07,76.06 27.45,72.15 25.62,67.72 29.41,72.75 30.75,73.73 29.27,74.46 "/>
  <path class="fil13" d="M36.53 79.09c-0.47,-1.32 -0.96,-2.72 -1.47,-4.14l11.53 1.42 2.11 -1.28 -1.05 2.11 -7.84 1.28 -3.28 0.61z"/>
  <path class="fil2" d="M49.04 124.34c0,0 0,0 0,0l0.01 -0.03c0,0.02 0,0.03 -0.01,0.03zm0.01 -0.03c0,-0.01 0,-0.02 -0.01,-0.03 0.09,-0.14 0.17,-0.29 0.25,-0.43l-0.24 0.46z"/>
  <path class="fil0" d="M49.04 124.28c-0.19,-0.65 -4.11,-7.19 -6,-9.03 -4.52,-4.41 -9.17,-7.77 -9.17,-7.77l1.34 -2.62 15 10.1 1.17 4.77 -1.46 1.69 0.32 0.6 -0.95 1.83c-0.08,0.14 -0.16,0.29 -0.25,0.43z"/>
  <path class="fil2" d="M50.66 122.83l-0.38 -0.74c0.02,-0.04 0.05,-0.09 0.07,-0.13 0.1,0.28 0.21,0.57 0.31,0.87z"/>
  <path class="fil14" d="M67.92 110.11c-0.76,-2.52 -1.26,-4.14 -1.26,-4.14l-0.46 0.08 0.47 -0.41 1.36 4.41c0,0 -0.04,0.02 -0.11,0.06z"/>
  <path class="fil0" d="M51.3 124.03l-0.64 -1.2c-0.1,-0.3 -0.21,-0.59 -0.31,-0.87 0.77,-1.38 1.32,-2.38 1.61,-2.91l2.47 -2.88 11.77 -10.12 0.46 -0.08c0,0 0.5,1.62 1.26,4.14 -0.65,0.33 -3.84,1.98 -4.86,2.66 -3.15,2.07 -9.67,9.24 -11.76,11.26z"/>
  <path class="fil14" d="M50.28 122.09l-0.04 -0.07 1.15 -2.22 -0.01 -0.07 0.58 -0.68c-0.29,0.53 -0.84,1.53 -1.61,2.91 -0.02,0.04 -0.05,0.09 -0.07,0.13z"/>
  <polygon class="fil15" points="50.24,122.02 49.92,121.42 51.38,119.73 51.39,119.8 "/>
  <path class="fil13" d="M41.83 28.11c0,0 7.66,-2.97 12.31,-3.37 3.2,-0.28 5.29,0.37 5.29,0.37l1.59 3.5c0,0 -0.48,1.72 -1.92,1.81 -0.86,0.05 -2.45,-0.98 -3.48,-0.93 -0.83,0.03 -1.63,1.6 -4.76,1.96 -1.26,0.14 -3.62,-1.18 -4.69,-1.48 -0.88,-0.25 -3.06,-0.12 -3.06,-0.12l-1.28 -1.74z"/>
  <path class="fil7" d="M47.14 28.08c0,-0.9 3.36,-1.35 3.36,-1.35 0,0 2.67,-0.08 2.91,0.66 0.25,0.79 -1.14,2.01 -1.84,2.17 -1.33,0.32 -4.43,-0.36 -4.43,-1.48z"/>
  <path class="fil7" d="M55.91 27.46c0.14,0.44 1.36,0.9 1.93,1.1 1.55,0.55 2.32,-0.35 2.15,-1.02 -0.14,-0.53 -0.49,-0.72 -0.85,-0.89 -0.52,-0.25 -1.37,-0.39 -2.01,-0.21 -0.74,0.21 -1.38,0.54 -1.22,1.02z"/>
  <polygon class="fil8" points="48.4,28.88 50.22,27.51 52.75,27.71 "/>
  <polygon class="fil8" points="56.65,27.66 58.21,26.98 59.65,27.77 "/>
  <path class="fil16" d="M52.14 36.57c0.09,0.03 3.17,0.22 3.17,0.22l4.01 -0.7 -2.43 1.02 -2.64 -0.02 -2.11 -0.52z"/>
  <polygon class="fil5" points="59.22,32.17 60.47,32.07 61,33.7 60.01,32.71 "/>
  <polygon class="fil5" points="48.29,35.99 46.64,33.65 50.43,32.68 48.47,34.01 "/>
  <polygon class="fil0" points="18.87,88.63 17.81,85.47 19.32,86.82 23.24,86.15 20.98,88.18 "/>
  <path class="fil0" d="M38.28 53.47c0.05,-0.22 0.09,-0.43 0.14,-0.65l0.16 -0.04 0.71 0.56 -1.01 0.13z"/>
  <path class="fil0 str0" d="M34.21 54l4.21 -1.18c-0.05,0.22 -0.09,0.43 -0.14,0.65l-4.07 0.53z"/>
  <polygon class="fil0" points="42.92,52.86 41.38,52 43.38,51.44 45.68,52.5 "/>
  <polygon class="fil17" points="45.68,52.5 43.38,51.44 43.93,51.29 47.21,52.3 "/>
  <polygon class="fil18" points="39.29,53.34 38.58,52.78 41.38,52 42.92,52.86 "/>
  <polygon class="fil18" points="56.56,64.27 53.26,63.93 55.41,63.14 57.57,63.69 "/>
  <polygon class="fil18" points="62.08,64.84 56.56,64.27 57.57,63.69 "/>
  <polygon class="fil10" points="43.04,41.31 44.18,46.63 44.4,42.22 "/>
  <polygon class="fil10" points="47.68,47.3 50.73,52.73 50.32,47.88 "/>
  <path class="fil12" d="M35.9 100.47l-0.45 3.95 -1.36 2.38 -1.58 3.62 -2.94 -0.46 -3.46 -2.79 -1.96 -1.2 -10.46 -5.84c0.16,-2.5 6.39,-6.35 8.88,-7.25l3.33 6.16 2.6 2.37 2.09 0.23 3.62 -1.64 1.69 0.47z"/>
  <path class="fil0" d="M62.87 94.01l-5.2 -2.44 2.13 -1.15 3.07 3.59zm-19.9 -0.91c-0.1,-0.3 1.07,-1.47 2.39,-2.66l1.85 1.03c-1.62,0.7 -3.38,1.42 -4.24,1.63z"/>
  <path class="fil13" d="M57.67 91.57l-2.03 -0.95 -4.98 -0.68c0,0 -1.63,0.75 -3.45,1.53l-1.85 -1.03c1.63,-1.47 3.49,-2.99 3.49,-2.99l8.6 0.23 2.35 2.74 -2.13 1.15z"/>
  <path class="fil0" d="M56.93 97.3c-0.68,0 -3.95,-1.24 -3.95,-1.24l-0.48 -1.72 0.29 -0.15 3.8 1.64 2.38 -0.11c0,0 -1.47,1.02 -2.04,1.58z"/>
  <polygon class="fil13" points="52.5,94.34 52.41,94.02 52.79,94.19 "/>
  <path class="fil0" d="M48.44 96.91c-0.91,-0.23 -2.26,-2.11 -2.26,-2.11l3.69 0.34 1.75 -1.2 0.43 0.24 -0.22 1.52c0,0 -2.71,1.21 -3.39,1.21z"/>
  <polygon class="fil13" points="52.05,94.18 51.62,93.94 52.13,93.59 "/>
  <path class="fil0" d="M70.41 153.1c-0.57,-0.57 -3.47,-3.77 -3.47,-3.77l2.72 1.06 1.35 -1.77 0.3 2.37c0,0 0.12,1.09 -0.9,2.11z"/>
  <path class="fil0" d="M24.7 153.04c-0.55,0 -1.42,-0.13 -1.89,-0.84 0.34,-0.8 0.87,-3.32 0.87,-3.32l1.52 1.11 2.86 -0.31 -2.86 3.32c0,0 -0.21,0.04 -0.5,0.04z"/>
  <path class="fil2" d="M73.94 141.82c0.02,-0.16 0.03,-0.32 0.04,-0.48l0.06 -0.1 -0.1 0.58z"/>
  <path class="fil0" d="M72.84 148.48c-0.57,-0.57 -3.32,-2.83 -3.32,-2.83l1.96 -0.34 2.5 -3.97c-0.01,0.16 -0.02,0.32 -0.04,0.48l-0.65 3.8c0,0 0,1.35 -0.45,2.86z"/>
  <path class="fil2" d="M22.53 146.95c-0.22,-1.4 -0.08,-4.09 -0.08,-4.09l0.51 0.73c-0.17,1.65 -0.35,2.86 -0.43,3.36z"/>
  <path class="fil0" d="M22.79 147.73c-0.12,-0.12 -0.2,-0.41 -0.26,-0.78 0.08,-0.5 0.26,-1.71 0.43,-3.36l0.88 1.27 2.57 -0.19c0,0 -2.26,2 -3.62,3.06z"/>
  <path class="fil0" d="M15.21 97.62l-0.74 -0.46 -4.06 -5.11 4.99 4.23 0.73 0.51c-0.33,0.27 -0.64,0.55 -0.92,0.83z"/>
  <path class="fil13" d="M22.95 102.45l-7.74 -4.83c0.28,-0.28 0.59,-0.56 0.92,-0.83l1.78 1.23 5.04 4.43z"/>
  <polygon class="fil0" points="21.28,59.31 22.41,57.2 24.41,56.58 23.69,58.71 23.24,57.96 "/>
  <polygon class="fil0" points="54.58,101.36 52.4,98.94 58.35,100.83 "/>
  <polygon class="fil0" points="50.68,101.45 47.66,100.81 51.64,99.13 "/>
  <polygon class="fil0" points="29.19,145.69 32.45,143.25 37.58,137.45 44.85,129.39 34.68,145.1 "/>
  <path class="fil0" d="M63.81 148.08l-2 -3.88c0,0 -1.58,-3.4 -2.48,-5.54 2.6,3.95 4.86,5.65 4.86,5.65l2.94 0 -3.32 3.77z"/>
  <path class="fil12" d="M67.05 104.93c0,0 -11.47,-0.59 -14.64,-0.73 -6.18,-0.28 -17.75,0.56 -17.75,0.56 0,0 -0.41,1.16 -0.57,2.26 9.01,3.3 16.06,15.46 16.06,15.46l1.81 -0.61c0,0 4.73,-4.84 8.8,-8.76 5.01,-4.82 7.03,-4.62 7.03,-4.62l-0.74 -3.56z"/>
  <path class="fil8" d="M51.88 10.32c0,0 1.58,1.04 0.5,2.32 -1.08,1.28 2.51,-0.19 2.51,-0.19 0,0 -0.29,-2.81 -3.01,-2.13z"/>
  <path class="fil19" d="M57.37 18.06c-0.16,0 -0.32,-0.17 -0.55,-0.34 -0.24,-0.18 -0.55,-0.35 -1.03,-0.35 -0.22,0 -0.48,0.04 -0.78,0.13 -0.02,0.01 -0.04,0.01 -0.06,0.01 -0.5,0 -0.52,-1.84 -1.03,-2.12 0.62,-0.76 1.06,-1.54 1.32,-2.33 0.14,0.03 0.26,0.04 0.37,0.04 0.4,0 0.57,-0.15 0.69,-0.3 0.12,-0.15 0.18,-0.3 0.37,-0.3 0,0 0.01,0 0.01,0 1.5,0.03 1,1.19 1.56,1.3 0.14,0.02 0.32,0.03 0.54,0.03 0.04,0 0.1,0 0.15,0 -0.04,1.36 -0.53,2.74 -1.17,4 -0.07,0.04 -0.14,0.09 -0.21,0.15 -0.07,0.06 -0.12,0.08 -0.18,0.08z"/>
  <path class="fil20" d="M60.34 17.33c0.12,-0.42 0.21,-0.84 0.27,-1.27 -0.04,0.49 -0.12,0.96 -0.27,1.27zm0.24 -3.3c-0.02,-0.11 -0.04,-0.21 -0.06,-0.31 0.02,-0.01 0.03,-0.01 0.03,-0.01 0,0 0.01,0.12 0.03,0.32z"/>
  <path class="fil19" d="M59.72 17.73c-0.16,0 -0.33,-0.03 -0.52,-0.06 -0.19,-0.03 -0.39,-0.06 -0.6,-0.06 -0.17,0 -0.35,0.02 -0.52,0.07 0.6,-1.22 1.03,-2.54 1.07,-3.85 0.59,-0.03 1.22,-0.1 1.37,-0.11 0.02,0.1 0.04,0.2 0.06,0.31 0.03,0.44 0.08,1.27 0.03,2.03 -0.06,0.43 -0.15,0.85 -0.27,1.27 -0.06,0.13 -0.14,0.24 -0.24,0.3 -0.11,0.07 -0.24,0.1 -0.38,0.1z"/>
  <path class="fil20" d="M52.08 12.32c0.01,-0.02 0.02,-0.03 0.03,-0.04 0.05,-0.02 0.1,-0.04 0.14,-0.06 -0.06,0.04 -0.11,0.07 -0.17,0.1z"/>
  <path class="fil19" d="M52.12 15.79c-0.06,0 -0.12,-0.01 -0.18,-0.03 -0.5,-0.16 -2.17,-2.5 -2.17,-2.5 0,0 1.81,-0.45 2.31,-0.94 0.06,-0.03 0.11,-0.06 0.17,-0.1 0.16,-0.05 0.3,-0.08 0.44,-0.09 -0.06,0.16 -0.16,0.34 -0.31,0.51 -0.33,0.39 -0.23,0.53 0.07,0.53 0.43,0 1.26,-0.28 1.83,-0.49 0.19,0.13 0.35,0.23 0.5,0.28 0.08,0.02 0.16,0.04 0.23,0.06 -0.26,0.79 -0.71,1.56 -1.35,2.33 -0.22,0.01 -0.48,0.11 -0.75,0.22 -0.28,0.11 -0.56,0.22 -0.79,0.22z"/>
  <path class="fil19" d="M52.45 13.17c-0.3,0 -0.4,-0.14 -0.07,-0.53 0.15,-0.17 0.25,-0.35 0.31,-0.51 0.06,-0.01 0.11,-0.01 0.17,-0.01 0.59,0 1.05,0.31 1.42,0.56 -0.57,0.21 -1.4,0.49 -1.83,0.49z"/>
  <path class="fil21" d="M44.36 23.03l-0.14 -0.18 7.06 -5.29c0.97,-0.73 1.77,-1.47 2.38,-2.21 0.02,-0.01 0.03,-0.01 0.05,-0.01 0.05,0 0.11,0.01 0.15,0.02 0.02,0.01 0.04,0.02 0.06,0.03 -0.64,0.79 -1.48,1.57 -2.51,2.35l-7.05 5.29z"/>
  <path class="fil22" d="M54.99 8.83c-0.02,-0.01 -0.05,-0.01 -0.07,-0.02l0.06 -0.02c0,0.01 0.01,0.03 0.01,0.04z"/>
  <path class="fil21" d="M55.24 13.06c-0.07,-0.01 -0.15,-0.02 -0.23,-0.04 0.45,-1.34 0.37,-2.72 -0.24,-4.15l0.15 -0.06c0.02,0.01 0.05,0.01 0.07,0.02 0.62,1.46 0.7,2.87 0.25,4.23z"/>
  <path class="fil23" d="M53.92 15.39c-0.02,-0.01 -0.04,-0.02 -0.06,-0.03 -0.04,-0.01 -0.1,-0.02 -0.15,-0.02 -0.02,0 -0.03,0 -0.05,0.01 0.64,-0.77 1.09,-1.54 1.35,-2.33 0.08,0.02 0.16,0.03 0.23,0.04 -0.26,0.79 -0.7,1.57 -1.32,2.33z"/>
  <path class="fil24" d="M54.29 22.87c-0.02,0 -0.05,-0.01 -0.08,-0.03 -0.04,-0.05 -0.04,-0.12 0.01,-0.16 0.04,-0.04 2.15,-2.15 3.54,-4.85 0.11,-0.06 0.21,-0.11 0.32,-0.15 -1.4,2.86 -3.66,5.12 -3.71,5.16 -0.02,0.02 -0.05,0.03 -0.08,0.03zm4.64 -9.04c0.03,-1.22 -0.29,-2.43 -1.18,-3.51 -0.04,-0.05 -0.03,-0.12 0.02,-0.16 0.02,-0.02 0.04,-0.03 0.07,-0.03 0.03,0 0.06,0.02 0.08,0.04 0.93,1.13 1.27,2.39 1.23,3.66 -0.07,0 -0.15,0 -0.22,0z"/>
  <path class="fil25" d="M57.76 17.83c0.64,-1.26 1.13,-2.64 1.17,-4 0.07,0 0.15,0 0.22,0 -0.04,1.31 -0.47,2.63 -1.07,3.85 -0.11,0.04 -0.21,0.09 -0.32,0.15z"/>
  <polygon class="fil5" points="45.22,34.03 46.3,36.14 47.44,38.4 45.6,37.12 "/>
  <polygon class="fil7" points="55.7,45.28 57.02,46.49 60.22,46.11 60.77,44.51 "/>
  <polygon class="fil5" points="57.92,44.84 58.47,44.25 58.77,45.24 58.55,45.65 "/>
  <path class="fil12" d="M79.68 163.19c0.56,8.71 2.06,23.08 2.58,24.95 0.28,1.02 1.51,2.97 2.37,4.07 0.61,0.77 6.06,4.9 6.06,4.9l0 1.47 -15.1 0c0,0 -0.34,-1.81 -0.34,-2.88 0.05,-1.47 0.68,-3.88 0.11,-6.48 -0.74,-2.96 -1.58,-4.86 -2.94,-6.9 -0.86,-2.09 -4.86,-8.59 -4.86,-8.59 0,0 -0.86,-3.59 -1.47,-6.71 3.62,-1.2 10.87,-2.77 13.59,-3.83z"/>
  <path class="fil12" d="M9.45 190.86c1.15,-1.8 2.03,-6.8 2.03,-6.8 2.32,-14.67 2.96,-15.67 4.32,-23.24 1.88,1.05 12.63,7.22 12.63,7.22l-2.49 6.42c0,0 -7.19,10.06 -8.97,14.82 -1.51,4.03 -0.84,6.17 -0.84,6.17l-0.04 3.08 -15.16 0 0.39 -2.17c0,0 6.23,-2.51 8.13,-5.5z"/>
  <polygon class="fil26" points="35.64,102.81 35.72,102.06 35.75,102.05 "/>
  <polygon class="fil13" points="35.47,103.89 34.25,103.56 32.44,102.5 33.49,102.65 35.72,102.06 35.64,102.81 "/>
  <polygon class="fil0" points="11.78,80.72 12.24,73.63 16.01,70.02 13.59,75.07 "/>
  <path class="fil18" d="M75.87 196.78l0.64 -3.47c0,0 0.38,0.84 1.13,1.74 1.01,1.21 0.9,1.36 0.9,1.36l-2.67 0.37z"/>
  <path class="fil0" d="M59.55 134.7c-2.03,-2.94 -6.56,-12.1 -6.56,-12.1l1.36 -1.58c0,0 3.85,10.17 5.2,13.68z"/>
  <path class="fil27" d="M122.33 118.66c0,0 0,-0.08 0,-0.24l0.15 0.13 -0.15 0.11z"/>
  <path class="fil28" d="M135.15 15.02c1.39,0.48 2.52,2.35 2.8,4.59l6.43 50.83c1,7.85 -0.21,15.29 -2.3,21.75 -2.06,6.35 -5.03,12.03 -8.17,16.96 -3.64,5.73 -8.21,11.62 -12.63,15.88 -0.36,0.34 -0.77,0.55 -1.2,0.61 -0.43,0.05 -0.88,-0.05 -1.31,-0.29 -5.34,-3.02 -11.25,-7.6 -16.2,-12.24 -4.26,-3.99 -8.55,-8.75 -12.13,-14.39 -3.64,-5.73 -6.66,-12.63 -7.66,-20.48l-6.43 -50.84c-0.28,-2.23 0.35,-4.32 1.56,-5.14l25.99 -17.37c0.53,-0.37 1.15,-0.44 1.76,-0.23l29.49 10.36z"/>
  <path class="fil29" d="M137.67 12.52c1.38,0.48 2.51,2.35 2.79,4.59l6.44 50.83c0.99,7.85 -0.22,15.29 -2.31,21.75 -2.06,6.35 -5.03,12.03 -8.17,16.96 -3.64,5.73 -8.21,11.62 -12.63,15.88 -0.36,0.35 -0.77,0.55 -1.2,0.61 -0.43,0.05 -0.88,-0.05 -1.31,-0.29 -5.34,-3.02 -11.24,-7.6 -16.19,-12.24 -4.27,-3.99 -8.56,-8.75 -12.14,-14.39 -3.63,-5.72 -6.66,-12.63 -7.65,-20.48l-6.44 -50.83c-0.28,-2.24 0.35,-4.33 1.57,-5.15l25.98 -17.37c0.54,-0.36 1.15,-0.44 1.76,-0.23l29.5 10.36z"/>
  <path class="fil30" d="M137.58 14.11l-29.5 -10.35c-0.41,-0.14 -0.82,-0.09 -1.19,0.15l-25.98 17.38c-0.82,0.54 -1.25,1.97 -1.06,3.49l6.44 50.83c0.83,6.62 3.3,13.18 7.32,19.52 3.07,4.84 7.07,9.58 11.89,14.09 8.1,7.59 15.68,11.91 16,12.09 0.3,0.17 0.6,0.23 0.89,0.2 0.28,-0.04 0.56,-0.18 0.8,-0.41 0.27,-0.26 6.53,-6.33 12.48,-15.7 3.55,-5.57 6.24,-11.16 8.01,-16.61 2.32,-7.14 3.07,-14.11 2.23,-20.72l-6.44 -50.84c-0.19,-1.52 -0.96,-2.79 -1.89,-3.12zm-0.89 4.54c-5.38,-2.09 -24.4,-10.67 -28.52,-10.27 -1.22,0.13 -22.32,15.11 -25.27,17.08l6.3 49.78c0.81,6.35 3.41,12 6.32,16.6 3.31,5.2 7.27,9.55 11.2,13.23 9.07,8.51 7.07,6.81 15.03,11.44 1.25,-1.22 2.44,-2.57 3.62,-3.94 2.04,-2.36 2.31,-1.79 8.1,-10.88 2.88,-4.55 5.63,-9.74 7.54,-15.61 1.68,-5.18 2.79,-11.29 1.98,-17.64l-6.3 -49.79z"/>
  <g id="_1504494631344">
   <path class="fil29" d="M129.67 45.17c0.74,0.11 1.3,0.69 1.39,1.43l2.11 16.79c0.33,2.6 -0.53,5.14 -1.84,7.39 -1.29,2.2 -3.06,4.22 -4.89,6 -2.14,2.06 -4.78,4.21 -7.3,5.81 -0.2,0.13 -0.43,0.22 -0.67,0.25 -0.23,0.04 -0.47,0.02 -0.7,-0.04 -2.82,-0.81 -5.9,-2.11 -8.46,-3.48 -2.21,-1.17 -4.41,-2.6 -6.2,-4.35 -1.82,-1.78 -3.27,-3.98 -3.6,-6.57l-2.11 -16.8c-0.1,-0.73 0.3,-1.46 0.98,-1.78l14.59 -6.84c0.3,-0.14 0.64,-0.19 0.96,-0.14l15.74 2.33z"/>
   <path class="fil30" d="M129.58 45.71l-15.74 -2.33c-0.22,-0.03 -0.45,0 -0.65,0.1l-14.58 6.83c-0.46,0.22 -0.74,0.71 -0.67,1.21l2.11 16.8c0.27,2.18 1.43,4.29 3.45,6.26 1.53,1.5 3.58,2.94 6.07,4.26 4.2,2.23 8.19,3.39 8.36,3.43 0.16,0.05 0.32,0.06 0.48,0.04 0.15,-0.03 0.31,-0.09 0.45,-0.17 0.15,-0.1 3.71,-2.38 7.2,-5.75 2.08,-2.01 3.69,-3.98 4.8,-5.88 1.45,-2.48 2.05,-4.85 1.78,-7.04l-2.12 -16.79c-0.06,-0.51 -0.45,-0.9 -0.94,-0.97zm-0.61 1.55c-2.87,-0.49 -12.96,-2.63 -15.21,-2.33 -0.67,0.08 -12.53,5.93 -14.19,6.7l2.07 16.45c0.27,2.1 1.53,3.89 2.99,5.32 1.65,1.62 3.68,2.92 5.71,4 1.27,0.68 2.57,1.28 3.9,1.83 0.32,0.61 0.66,1.24 1.09,1.94l0.06 -1.49c0.23,0.09 0.23,0.09 0.45,0.17 0.78,0.29 1.56,0.57 2.36,0.81 0.71,-0.46 1.39,-0.96 2.07,-1.47 0.31,-0.23 0.61,-0.46 0.92,-0.69l0.17 1.42c0.17,-0.6 0.53,-1.41 0.69,-2.11 1.08,-0.87 1.91,-1.61 2.91,-2.58 1.7,-1.64 3.33,-3.49 4.52,-5.52 1.06,-1.81 1.83,-3.9 1.56,-6l-2.07 -16.45z"/>
   <path class="fil30" d="M111.59 59.12c0.38,0.15 0.13,0.05 0.5,0.2l-0.5 -0.2zm0 0c-1.48,-0.33 -5.47,-1.61 -6.94,-2.07 0.51,1.34 2.5,12.44 2.89,12.86 3.66,4.07 5.73,5.73 7.79,11.26l-2.11 -16.78c-0.49,-0.33 -1.08,-0.48 -1.74,-0.73l-1.39 -0.51c-1.09,-0.43 -0.45,-1.28 -0.85,-1.95 -0.18,-0.3 -0.99,-0.47 -1.42,-1 1.02,0.16 2.48,0.77 3.49,1.11 1.05,0.35 2.5,0.64 3.39,1.19 0.32,2.08 0.25,2.68 0.08,4.62 0.64,0.58 1.67,1.36 2.3,1.6 -0.18,-2 -1.86,-13.62 -1.71,-14.43l2.93 -0.5c-1.66,-0.76 -5.68,0.33 -7.67,0.54 1.72,-0.72 2.43,-0.92 4.43,-1.34 -0.35,-3.31 -0.37,-3.47 -0.76,-6.41 -5.09,1.5 -8.9,4.36 -8,10.05 0.84,0.49 4.1,1.88 5.29,2.49z"/>
   <path class="fil30" d="M121.4 79.64c0.26,-0.93 -0.58,-11.56 -0.57,-12.98 0.04,-3.77 0.12,-2.16 1.57,-4.14 0.37,-0.51 0.63,-0.68 0.89,-1.14l-3.92 2.01 2.03 16.25z"/>
   <path class="fil30" d="M123.41 56.08c0.93,-1.26 1.2,-3.05 0.4,-4.83 -0.61,-1.35 -2.19,-2.95 -3.11,-3.32 2.16,3.41 2.79,3.7 2.71,8.15z"/>
   <path class="fil30" d="M116.15 64.02c-0.61,-0.22 -1.61,-1.87 -1.61,-1.87 -1.44,1.84 -1.98,1.68 -1.95,1.68 1.12,0.09 0.85,1.18 1.13,2.32 0.24,1.94 0.83,8.03 1.15,8.49 0.64,0.01 2.37,-0.17 3.03,-0.4 0.51,-0.18 0.58,-0.36 0.56,-0.9 -0.02,-0.54 0.02,-0.97 -0.08,-1.52 -0.41,-0.18 -2.62,-0.02 -3.02,-0.48 0.81,-0.23 2.71,-0.16 2.82,-0.92 -0.48,-0.17 -1.45,-0.21 -2.05,-0.12 -0.34,0.04 -0.53,0.1 -0.77,0.01 0.96,-0.72 1.98,-0.38 2.7,-0.77 -0.1,-0.45 -0.67,-0.26 -1.04,-0.36 -0.26,-0.21 -0.3,-0.41 -0.6,-0.59 -0.29,-0.17 -0.56,-0.15 -0.61,-0.53 0.53,-0.26 0.47,0 0.85,0.01 0.36,0.01 0.3,-0.48 0.2,-1.02l-0.32 0.05 -0.39 -3.08z"/>
  </g>
 </g>
</svg>
