<?xml version="1.0" encoding="UTF-8"?>
<!DOCTYPE svg PUBLIC "-//W3C//DTD SVG 1.1//EN" "http://www.w3.org/Graphics/SVG/1.1/DTD/svg11.dtd">
<!-- Creator: CorelDRAW 2019 (64-Bit) -->
<svg xmlns="http://www.w3.org/2000/svg" xml:space="preserve" width="125px" height="150px" version="1.1" style="shape-rendering:geometricPrecision; text-rendering:geometricPrecision; image-rendering:optimizeQuality; fill-rule:evenodd; clip-rule:evenodd"
viewBox="0 0 125 150"
 xmlns:xlink="http://www.w3.org/1999/xlink">
 <defs>
  <style type="text/css">
   <![CDATA[
    .fil1 {fill:#BFD131}
    .fil0 {fill:#4D4D4D}
   ]]>
  </style>
 </defs>
 <g id="Layer_x0020_1">
  <metadata id="CorelCorpID_0Corel-Layer"/>
  <g id="_1504741250800">
   <path class="fil0" d="M119.3 18.49c2.61,0.79 4.37,3.2 4.37,5.92l0 61.86c0,9.55 -4.24,18.28 -9.99,25.69 -5.65,7.29 -12.93,13.64 -20.35,19.07 -8.63,6.31 -19.11,12.67 -28.9,17.11 -0.8,0.36 -1.65,0.54 -2.52,0.54 -0.87,0 -1.73,-0.18 -2.52,-0.54 -9.78,-4.42 -20.29,-10.81 -28.9,-17.11 -7.43,-5.43 -14.7,-11.78 -20.35,-19.07 -5.75,-7.41 -10,-16.14 -10,-25.69l0 -61.86c0,-2.72 1.77,-5.13 4.37,-5.92l55.63 -16.87c1.15,-0.35 2.38,-0.35 3.54,0l55.62 16.87z"/>
   <path class="fil1" d="M118.72 20.39l-55.62 -16.87c-0.78,-0.24 -1.61,-0.24 -2.39,0l-55.62 16.87c-1.76,0.53 -2.96,2.17 -2.96,4.02l0 61.86c0,8.04 3.22,16.28 9.57,24.48 4.86,6.26 11.57,12.54 19.96,18.68 14.09,10.31 27.97,16.64 28.55,16.9 0.54,0.25 1.12,0.37 1.7,0.37 0.58,0 1.16,-0.12 1.7,-0.37 0.58,-0.26 14.45,-6.59 28.55,-16.9 8.38,-6.14 15.1,-12.42 19.95,-18.68 6.36,-8.2 9.58,-16.44 9.58,-24.48l-0.01 -61.86c0,-1.85 -1.2,-3.49 -2.96,-4.02zm-2.88 5.29c-10.11,-3.31 -45.5,-16.47 -53.72,-16.61 -2.45,-0.04 -47.84,14.7 -54.15,16.61l0 60.59c0,7.72 3.73,14.88 8.34,20.83 5.22,6.73 11.94,12.54 18.78,17.54 4.25,3.11 8.67,6 13.2,8.68 0.88,2.38 1.82,4.86 3.05,7.64l0.89 -5.37c0.78,0.44 0.77,0.43 1.55,0.86 2.67,1.46 5.37,2.89 8.13,4.17 2.76,-1.28 5.45,-2.71 8.12,-4.17 1.21,-0.66 2.42,-1.34 3.62,-2.03l-0.01 5.25c0.88,-2.09 2.53,-4.81 3.43,-7.27 4.29,-2.57 7.62,-4.8 11.66,-7.76 6.83,-5 13.56,-10.81 18.78,-17.54 4.61,-5.95 8.33,-13.11 8.33,-20.83l0 -60.59z"/>
   <g>
    <path class="fil1" d="M47.84 59.2c1.31,0.77 0.46,0.27 1.74,1.02l-1.74 -1.02zm8.68 13.14c-5.55,5.24 -7.29,4.41 -7.18,4.44 4,0.95 2.5,4.73 3,9 0,7.13 -0.62,29.47 0.3,31.31 2.29,0.38 8.63,0.64 11.09,0.17 1.92,-0.37 2.25,-0.98 2.42,-2.96 0.17,-1.95 0.53,-3.49 0.42,-5.51 -1.4,-0.88 -9.42,-1.5 -10.66,-3.37 3.01,-0.39 9.82,0.88 10.57,-1.8 -1.66,-0.89 -5.14,-1.54 -7.34,-1.56 -1.25,-0.02 -1.94,0.1 -2.77,-0.38 3.79,-2.08 7.29,-0.31 10.08,-1.3 -0.17,-1.7 -2.31,-1.33 -3.6,-1.89 -0.84,-0.88 -0.9,-1.62 -1.9,-2.44 -0.95,-0.77 -1.92,-0.84 -1.92,-2.24l0.32 -0.1c1.4,1.35 2.83,2.54 3.94,3.17 0.24,-7.32 -0.55,-50.25 0.39,-53.1l10.77 -0.22c-5.63,-3.65 -20.6,-1.87 -27.89,-2.17 6.55,-1.68 9.18,-2.03 16.59,-2.47 0.22,-12.17 0.22,-12.74 0.17,-23.56 -19.04,2.67 -34.06,10.94 -33.38,32 2.81,2.22 13.91,9 17.91,11.85 -5.18,-2 -18.94,-8.77 -24.06,-11.2 1.26,5.12 3.4,46.31 4.58,48.04 11.36,16.68 18.06,23.79 22.97,44.91l0.02 -61.8c-1.64,-1.47 -3.7,-2.35 -5.97,-3.58l-4.76 -2.62c-3.72,-2.11 -1.03,-4.87 -2.18,-7.49 -0.53,-1.18 -3.34,-2.22 -4.65,-4.38 3.59,1.12 8.58,4.13 12.07,5.89 3.23,1.63 7.63,3.27 10.65,5.36z"/>
    <path class="fil1" d="M73.88 138.67c1.36,-3.23 3.16,-42.11 3.85,-47.21 1.84,-13.61 1.41,-7.75 7.53,-14.16 1.57,-1.64 2.58,-2.1 3.73,-3.63l-15.03 5.18 -0.08 59.82z"/>
    <path class="fil1" d="M91.82 54.6c3.92,-4.07 5.71,-10.41 3.61,-17.27 -1.59,-5.21 -6.56,-11.83 -9.7,-13.69 6.25,13.51 8.4,14.89 6.09,30.96z"/>
   </g>
  </g>
 </g>
</svg>
